<?xml version="1.0" encoding="UTF-8"?>
<svg xmlns="http://www.w3.org/2000/svg" xmlns:xlink="http://www.w3.org/1999/xlink" width="10pt" height="10pt" viewBox="0 0 10 10" version="1.1">
<g id="surface1">
<path style=" stroke:none;fill-rule:nonzero;fill:rgb(0%,0%,0%);fill-opacity:1;" d="M 4.035156 5.003906 L 7.777344 1.261719 C 7.878906 1.160156 7.9375 1.019531 7.9375 0.875 C 7.9375 0.726562 7.878906 0.589844 7.777344 0.488281 L 7.449219 0.160156 C 7.347656 0.0585938 7.210938 0 7.0625 0 C 6.917969 0 6.777344 0.0585938 6.675781 0.160156 L 2.222656 4.613281 C 2.117188 4.71875 2.0625 4.855469 2.0625 5 C 2.0625 5.148438 2.117188 5.285156 2.222656 5.390625 L 6.671875 9.839844 C 6.773438 9.941406 6.914062 10 7.058594 10 C 7.207031 10 7.34375 9.941406 7.445312 9.839844 L 7.773438 9.511719 C 7.988281 9.300781 7.988281 8.953125 7.773438 8.738281 Z M 4.035156 5.003906 "/>
</g>
</svg>
