<?xml version="1.0" encoding="utf-8"?>
<!-- Generator: Adobe Illustrator 23.0.3, SVG Export Plug-In . SVG Version: 6.00 Build 0)  -->
<svg version="1.1" id="Layer_1" xmlns="http://www.w3.org/2000/svg" xmlns:xlink="http://www.w3.org/1999/xlink" x="0px" y="0px"
	 viewBox="0 0 10 10" style="enable-background:new 0 0 10 10;" xml:space="preserve">
<g id="surface1">
	<path d="M2.2,8.7C2,9,2,9.3,2.2,9.5l0.3,0.3C2.7,9.9,2.8,10,2.9,10c0.1,0,0.3-0.1,0.4-0.2l4.4-4.4C7.9,5.3,7.9,5.1,7.9,5
		c0-0.1-0.1-0.3-0.2-0.4L3.3,0.2C3.2,0.1,3.1,0,2.9,0C2.8,0,2.7,0.1,2.6,0.2L2.2,0.5C2.1,0.6,2.1,0.7,2.1,0.9c0,0.1,0.1,0.3,0.2,0.4
		L6,5L2.2,8.7z"/>
</g>
</svg>
