<?xml version="1.0" standalone="no"?>
<!DOCTYPE svg PUBLIC "-//W3C//DTD SVG 20010904//EN"
 "http://www.w3.org/TR/2001/REC-SVG-20010904/DTD/svg10.dtd">
<svg version="1.0" xmlns="http://www.w3.org/2000/svg"
 width="264.000000pt" height="101.000000pt" viewBox="0 0 264.000000 101.000000"
 preserveAspectRatio="xMidYMid meet">
<metadata>
Created by potrace 1.16, written by Peter Selinger 2001-2019
</metadata>
<g transform="translate(0.000000,101.000000) scale(0.100000,-0.100000)"
fill="#000000" stroke="none">
<path d="M0 505 l0 -505 450 0 450 0 0 100 0 101 31 -18 c17 -10 42 -24 54
-31 13 -7 47 -39 75 -72 l52 -60 764 0 764 0 0 495 0 495 -1320 0 -1320 0 0
-505z m691 454 c32 -17 66 -40 76 -52 10 -11 13 -17 6 -13 -14 8 -309 -317
-307 -338 1 -9 -28 0 -82 26 -46 21 -106 42 -134 45 -55 6 -59 11 -30 38 11
10 20 23 20 30 0 6 18 29 40 50 22 21 40 46 40 55 0 9 41 56 90 103 l91 87 66
0 c54 0 75 -5 124 -31z m467 -754 c2 -28 11 -58 20 -69 18 -21 18 -21 -79 51
-19 14 -40 37 -46 50 -12 24 -11 24 45 21 l57 -3 3 -50z"/>
<path d="M1673 3 c181 -2 473 -2 650 0 177 1 30 2 -328 2 -357 0 -502 -1 -322
-2z"/>
</g>
</svg>
